<?xml version="1.0" standalone="no"?>
<!DOCTYPE svg PUBLIC "-//W3C//DTD SVG 1.1//EN" "http://www.w3.org/Graphics/SVG/1.1/DTD/svg11.dtd" >
<!--
2013-9-30: Created.
-->
<svg>
<metadata>
Created by iconfont
</metadata>
<defs>

<font id="iconfont" horiz-adv-x="1024" >
  <font-face
    font-family="iconfont"
    font-weight="500"
    font-stretch="normal"
    units-per-em="1024"
    ascent="896"
    descent="-128"
  />
    <missing-glyph />
    
    <glyph glyph-name="x" unicode="x" horiz-adv-x="1001"
d="M281 543q-27 -1 -53 -1h-83q-18 0 -36.5 -6t-32.5 -18.5t-23 -32t-9 -45.5v-76h912v41q0 16 -0.5 30t-0.5 18q0 13 -5 29t-17 29.5t-31.5 22.5t-49.5 9h-133v-97h-438v97zM955 310v-52q0 -23 0.5 -52t0.5 -58t-10.5 -47.5t-26 -30t-33 -16t-31.5 -4.5q-14 -1 -29.5 -0.5
t-29.5 0.5h-32l-45 128h-439l-44 -128h-29h-34q-20 0 -45 1q-25 0 -41 9.5t-25.5 23t-13.5 29.5t-4 30v167h911zM163 247q-12 0 -21 -8.5t-9 -21.5t9 -21.5t21 -8.5q13 0 22 8.5t9 21.5t-9 21.5t-22 8.5zM316 123q-8 -26 -14 -48q-5 -19 -10.5 -37t-7.5 -25t-3 -15t1 -14.5
t9.5 -10.5t21.5 -4h37h67h81h80h64h36q23 0 34 12t2 38q-5 13 -9.5 30.5t-9.5 34.5q-5 19 -11 39h-368zM336 498v228q0 11 2.5 23t10 21.5t20.5 15.5t34 6h188q31 0 51.5 -14.5t20.5 -52.5v-227h-327z" />
    

    
    <glyph glyph-name="liantong" unicode="&#58971;" d="M335.707218 239.53360899999996l32.603218 0 0-139.21692-32.603218 0 0 139.21692ZM352.020598 253.51650600000005c5.885057 0 10.404782 1.718437 13.888736 5.555494 3.436874 3.130851 5.178851 7.674115 5.178851 12.900046 0 5.249471-1.718437 9.792736-5.178851 13.253149-3.460414 3.436874-8.003678 5.249471-13.888736 5.249471-5.555494 0-10.075218-1.741977-13.535632-5.249471-3.789977-3.460414-5.531954-8.074299-5.531954-13.253149 0-5.225931 1.741977-9.769195 5.202391-12.900046C341.945379 255.23494300000004 346.465103 253.51650600000005 352.020598 253.51650600000005zM340.580046 22.657470999999987l33.074023 0 0-141.994667-33.074023 0 0 141.994667ZM1534.634667 175.55126399999995c37.428966 38.347034 41.925149 85.827678 14.218299 142.253609l-175.09223 187.40377 177.281471 190.44046c24.693701 45.903448 20.173977 93.337011-14.218299 143.006897-51.576644 42.137011-103.270989 50.446713-154.824092 25.58823l-61.298759-60.215908-64.335448 57.956046c-41.101241 26.341517-88.982069 21.092046-143.618943-15.065747-45.620966-48.16331-53.106759-97.833195-22.433839-149.762943l176.504644-189.710713-178.034759-191.170207c-28.413057-44.420414-23.140046-94.843586 16.454621-151.316598 53.860046-42.137011 103.223908-46.633195 149.574621-13.559172l64.288368 57.979586 60.569011-56.402391C1437.437057 122.06786199999999 1489.037241 129.55365500000005 1534.634667 175.55126399999995zM1151.705747 737.786115c-6.756046 18.055356-4.496184 33.850851 6.708966 48.916598 10.475402 15.065747 30.67292 18.078897 60.592552 8.286161l43.408184-39.90069-44.137931-48.16331 52.377011-54.213149 50.117149 48.940138 47.857287-48.186851 59.815724 57.202759-48.563494 42.913839 35.122023 41.407264c27.706851 15.065747 47.857287 15.065747 60.545471 0 16.454621-13.535632 20.197517-32.367816 9.745655-55.696184l-166.806069-176.904828L1151.705747 737.786115zM1367.098851 359.965425l-48.587034-48.186851-49.387402 48.916598-53.106759-54.213149 44.867678-48.186851-44.137931-39.877149c-28.413057-15.065747-48.587034-15.795494-62.146207-3.013149-16.384 14.28892-18.690943 34.627678-5.225931 60.239448l166.806069 175.421793 169.113011-173.891678c14.218299-26.341517 10.404782-47.457103-9.015908-63.276138-20.173977-9.792736-41.148322-8.309701-62.852414 4.496184l-35.85177 41.430805 48.563494 42.866759L1367.098851 359.965425zM265.22777 24.470068999999967c-14.218299 0.423724-25.988414-2.848368-35.192644-8.921747-4.637425-3.225011-7.838897-6.402943-9.604414-9.651494l-1.789057 16.831264-30.578759 0 0-141.994667 35.569287 0 0 86.157241c0 9.627954 2.471724 17.537471 7.838897 23.610851 5.320092 6.426483 13.158989 9.651494 22.739862 9.651494 9.25131 0 16.36046-3.578115 21.327448-11.087448 3.554575-6.12046 5.673195-13.606253 5.673195-22.198437l0-86.180782 32.74446 0 0 83.709057c0 20.056276-4.990529 35.404506-14.571402 46.138851C290.439356 19.456000000000017 279.069425 24.470068999999967 265.22777 24.470068999999967zM431.06869 184.40239099999997c0 9.369011 2.448184 17.113747 7.627034 23.045885 5.202391 6.614805 12.499862 9.769195 22.198437 9.769195 9.015908 0 15.936736-3.837057 20.809563-11.205149 3.436874-5.555494 5.531954-12.876506 5.531954-21.609931l0-84.085701 31.897011 0 0 81.661057c0 19.867954-4.849287 34.886621-14.571402 45.00892-8.309701 9.062989-19.42069 13.606253-32.932782 13.935816-13.865195 0-25.305747-2.754207-34.321655-9.062989-4.496184-2.801287-7.627034-5.932138-9.345471-9.110069l-1.741977 16.40754-29.825471 0 0-138.840276 34.674759 0L431.06869 184.40239099999997zM136.321471 141.86519499999997c-10.051678-11.511172-22.904644-17.44331-37.782069-17.44331-15.254069 0-27.753931 5.579034-37.476046 17.44331-10.051678 11.158069-14.900966 26.506299-14.900966 45.362023 0 18.149517 5.202391 33.144644 14.900966 44.632276 10.075218 11.864276 22.528 17.41977 37.476046 17.41977 15.583632 0 28.083494-5.555494 38.135172-17.113747 3.460414-4.496184 6.567724-9.086529 8.662805-13.982897l29.472368 21.633471c-7.603494 11.205149-17.325609 19.938575-29.472368 26.176736-14.218299 8.333241-29.825471 12.499862-46.468414 12.499862-22.55154 0-43.008-8.003678-60.333609-23.728552-20.103356-18.149517-30.178575-40.818759-30.178575-67.678161 0-25.470529 9.015908-47.08046 26.718161-64.54731 17.702253-17.796414 38.841379-26.882943 64.170667-26.882943 16.996046 0 32.603218 4.213701 46.468414 12.217379 11.793655 6.661885 21.51577 15.724874 29.472368 26.529839l-29.825471 21.609931C142.912736 150.951724 139.781885 146.38491999999997 136.321471 141.86519499999997zM954.203218 386.259862c32.932782-0.729747 70.314667 21.092046 112.216276 65.48892l59.862805-60.215908 50.846897 60.215908-53.106759 54.942897 58.35623 57.226299-56.096368 59.462621-58.35623-58.732874-37.428966 39.90069c-55.390161 33.850851-108.426299 33.850851-157.860782-0.729747-41.148322-35.404506-54.613333-78.294805-39.665287-127.98823C846.483126 418.651218 886.878161 389.296552 954.203218 386.259862zM950.460322 546.5923680000001c26.200276-1.483034 44.137931-15.065747 51.623724-39.90069l0.729747-2.236322c-7.462253-18.855724-25.423448-31.638069-52.424092-36.91108-30.649379 6.049839-44.867678 19.585471-43.384644 40.677517C907.828966 530.020046 922.047264 543.5792180000001 950.460322 546.5923680000001zM1407.588046-59.94519500000001L1407.588046-59.94519500000001l-11.369931-3.225011 0 96.23246 8.874667 0 0 17.890575-77.094253 0 0-17.890575 8.898207 0 0-113.769931-13.512092-3.554575 7.815356-18.973425 46.280092 15.37177 0-37.89977 18.808644-0.376644 0 44.702897 11.346391 3.531034L1407.588046-59.94519500000001 1407.588046-59.94519500000001zM1377.362391-68.89048300000002l-20.974345-6.779586 0 27.942253 20.974345 0L1377.362391-68.89048300000002zM1377.362391-29.507678000000055l-20.974345 0 0 22.127816 20.974345 0L1377.362391-29.507678000000055zM1377.362391 10.51071300000001l-20.974345 0 0 22.55154 20.974345 0L1377.362391 10.51071300000001zM221.960828 184.40239099999997c0.376644 9.369011 2.777747 17.113747 7.650575 23.045885 5.555494 6.308782 12.829425 9.416092 22.174897 9.416092 17.702253 0 26.341517-10.852046 26.341517-32.461977l0-84.085701 31.590989 0 0 81.661057c0 19.538391-4.872828 34.886621-14.218299 45.338483-8.662805 9.110069-19.773793 13.606253-33.285885 13.606253-11.440552 0-21.51577-3.10731-30.155034-9.062989-4.519724-3.130851-7.650575-6.308782-10.098759-9.110069L221.960828 300.90298900000005l-34.674759 0 0-200.586299 34.674759 0L221.960828 184.40239099999997zM472.499494-1.2829430000000457c11.016828 0 20.621241-4.307862 27.753931-13.253149 2.448184-2.471724 4.613885-6.073379 6.756046-10.357701l26.294437 18.973425c-6.379402 8.921747-14.218299 16.148598-23.822713 21.46869-12.099678 6.779586-24.55246 10.028138-38.064552 10.028138-18.47908 0-34.816-6.402943-49.057839-19.279448-16.36046-14.689103-24.52892-32.862161-24.52892-55.154759 0-20.315218 7.462253-37.85269 21.680552-52.18869 14.571402-14.665563 31.661609-21.892414 52.282851-21.892414 13.865195 0 26.317977 3.272092 38.041011 10.028138 9.25131 5.390713 17.41977 12.24092 23.469609 21.46869l-26.294437 18.996966c-2.142161-3.954759-4.307862-7.485793-6.756046-10.710805-7.485793-8.968828-16.737103-13.253149-28.107034-13.253149-11.346391 0-20.621241 4.331402-27.730391 13.253149-7.462253 8.545103-11.016828 20.056276-11.016828 34.721839 0 13.935816 3.907678 25.399908 11.016828 33.921471C451.878253-5.590805000000046 461.129563-1.2829430000000457 472.499494-1.2829430000000457zM124.386575-63.54685099999995L124.386575-63.54685099999995c-0.353103-9.627954-2.824828-17.513931-7.791816-23.634391-5.696736-6.402943-13.182529-10.028138-22.763402-10.028138-9.604414 0-17.090207 3.954759-22.786943 11.440552-4.260782 6.379402-6.732506 13.582713-6.732506 22.104276L64.311908 22.657470999999987l-35.192644 0 0-83.756138c0-20.056276 5.673195-35.451586 17.066667-46.162391 9.957517-9.321931 22.057195-13.959356 36.628598-13.959356 13.865195-0.376644 25.61177 2.871908 34.83954 8.945287l9.604414 9.321931 1.765517-16.40754 30.908322 0L159.932322 22.657470999999987l-35.545747 0L124.386575-63.54685099999995zM357.293609 75.26988500000004c-5.673195 0-10.310621-1.741977-13.865195-5.367172-3.907678-3.578115-5.673195-8.21554-5.673195-13.606253 0-5.367172 1.765517-9.627954 5.343632-13.229609 3.907678-3.954759 8.521563-5.743816 14.218299-5.743816 5.696736 0 10.663724 1.789057 14.241839 5.743816 3.531034 3.531034 5.320092 7.862437 5.320092 13.229609 0 5.390713-1.765517 10.028138-5.320092 13.606253C367.957333 73.52790800000002 362.990345 75.26988500000004 357.293609 75.26988500000004zM1260.767632-63.54685099999995L1246.878897-42.454804999999965 1234.449655-49.98767799999996 1247.232-69.24358600000005 1227.340506-69.24358600000005 1227.340506-39.936000000000035 1264.298667-39.936000000000035 1264.298667-22.751631999999972 1227.340506-22.751631999999972 1227.340506-0.24717199999997774 1266.770391-0.24717199999997774 1266.770391 16.607631999999967 1167.242299 16.607631999999967 1167.242299-0.24717199999997774 1207.048828-0.24717199999997774 1207.048828-22.751631999999972 1170.42023-22.751631999999972 1170.42023-39.936000000000035 1207.048828-39.936000000000035 1207.048828-69.24358600000005 1165.123678-69.24358600000005 1165.123678-87.181241 1269.265655-87.181241 1269.265655-69.24358600000005 1252.198989-69.24358600000005ZM1580.349793-99.30445999999995c-4.966989 3.554575-8.498023 7.17977-10.310621 11.087448l0 86.934069-41.619126 0 1.741977-18.196598 21.303908 0 0-59.085977c-0.706207-6.073379-9.274851-15.301149-25.235126-28.601379l14.971586-15.771954 17.37269 20.056276 0-0.353103 12.146759-10.357701c10.310621-6.756046 21.704092-10.028138 34.086253-10.028138l102.42354 0 3.225011 17.160828-107.013885 0C1594.921195-106.46069 1587.105839-103.96542499999998 1580.349793-99.30445999999995zM1036.076138 55.943355999999994l-21.704092 0 0-22.951724-73.586759 0 0-131.260322 73.586759 0 0-27.565609 21.704092 0 0 27.565609 72.503908 0L1108.580046 33.01517200000001l-72.503908 0L1036.076138 55.943355999999994zM1014.372046-77.48266699999999l-52.588874 0L961.783172 12.299769999999967l52.588874 0L1014.372046-77.48266699999999zM1087.605701 12.323309999999992l0-89.782437L1036.076138-77.45912599999997l0 89.782437L1087.605701 12.323309999999992zM1134.54492-120.42004599999996l165.275954 0 0 171.349333-165.275954 0L1134.54492-120.42004599999996zM1154.836598 31.97940200000005l124.786759 0 0-133.426023-124.786759 0L1154.836598 31.97940200000005zM1560.811402 11.946667000000048L1576.795218 26.235586000000012 1547.27577 56.649562999999944 1531.998161 44.126161000000025ZM1492.897839-95.74988499999995c-11.746575 13.253149-19.915034 29.354667-24.55246 47.951448l0 0.376644 34.83954 0 0 18.596782-38.041011 0 0 0.376644-0.706207 16.43108 0.376644 8.945287 35.545747 0 0 18.243678-25.188046 0 21.280368 34.345195-19.138207 7.485793-0.353103-0.400184-1.789057-5.390713c-2.448184-7.20331-8.498023-18.973425-18.47908-35.80469l0-0.376644-17.796414 0 12.146759 6.426483-19.538391 35.404506-17.113747-7.862437 17.41977-33.968552-25.658851 0 0-18.243678 39.076782 0 0-5.390713-0.682667-20.056276-0.376644-0.376644-37.334805-0.423724 0-18.173057 34.109793 0L1440.944552-47.96321799999998c-1.741977-6.756046-4.590345-13.982897-8.498023-21.421609-8.21554-15.089287-16.690023-27.965793-25.988414-38.276414l-0.423724-0.729747-7.815356-7.862437 19.185287-10.734345c16.33692 20.762483 28.813241 42.584276 36.981701 65.842023l0.329563 1.082851 0.376644-1.082851c6.12046-25.023264 18.902805-46.845057 38.441195-65.842023l16.737103 16.148598-0.423724 0.376644C1504.24423-107.16689699999995 1498.571034-102.52947099999994 1492.897839-95.74988499999995zM1771.049195 600.781977c-49.387402 34.627678-102.494161 34.627678-157.837241 0.753287l-37.428966-39.877149-58.35623 58.685793-55.390161-59.43908 58.35623-57.226299L1467.333149 448.735632l50.893977-60.215908L1578.042851 448.735632c41.148322-44.396874 78.553747-66.218667 111.439448-65.465379 67.277977 2.989609 107.720092 32.367816 120.455356 89.570575C1824.885701 522.510713 1812.150437 565.4010109999999 1771.049195 600.781977zM1693.272276 464.554667c-26.200276 5.273011-45.620966 18.832184-56.873195 39.123862l-0.729747 1.506575c11.27577 24.081655 30.72 36.864 57.602943 38.394115 28.413057-3.013149 42.678437-16.548782 43.361103-38.394115C1738.139954 484.116598 1723.921655 470.580966 1693.272276 464.554667zM604.13646 96.83273599999995c15.936736 0 30.508138 6.308782 44.396874 18.855724l0-14.665563 33.285885 0 0 137.474943-33.285885 0 0-15.677793c-13.182529 12.947126-28.083494 19.538391-45.10308 19.538391-19.397149 0-35.710529-6.991448-48.539954-20.597701-12.852966-13.935816-19.42069-31.002483-19.42069-51.576644 0-20.974345 6.567724-38.747218 19.42069-52.377011C568.072828 103.82418399999995 584.362667 96.83273599999995 604.13646 96.83273599999995zM580.902253 201.139494c7.603494 8.333241 17.325609 12.24092 28.789701 12.24092 11.793655 0 21.868874-3.837057 29.472368-12.24092 7.297471-8.356782 11.110989-18.855724 11.110989-31.802851 0-12.523402-3.813517-23.022345-11.110989-31.75577-7.603494-8.050759-17.678713-11.864276-29.825471-11.864276-11.440552 0-21.139126 4.213701-28.789701 12.546943-7.297471 8.050759-11.110989 18.855724-11.110989 31.77931C569.438161 182.66041399999995 573.275218 192.78271299999994 580.902253 201.139494zM1586.093609-97.13875900000005l18.785103 0 0 30.814161 28.813241 0 0-30.814161 19.538391 0 0 30.814161 29.919632 0 0-12.499862-0.659126-2.471724c-0.729747-0.706207-1.789057-1.05931-3.907678-1.05931l-13.512092-0.423724 6.026299-14.28892 13.206069 0c6.026299 0 10.310621 1.459494 13.158989 5.014069 2.848368 2.895448 4.331402 6.803126 4.331402 11.417011l0 91.924598-41.97223 0.423724-1.741977 1.05931 0.682667 0.400184c16.713563 10.710805 30.578759 20.338759 41.94869 28.930943l-8.921747 10.757885-100.940506 0 0-16.148598 75.046253 0-0.682667-0.706207-18.47908-14.665563-0.376644-0.376644-14.218299 10.310621-12.429241-10.710805 11.369931-8.592184 1.05931-0.682667-45.856368 0 0-108.402759L1586.093609-97.11521800000003zM1653.206805-3.825287000000003l29.872552 0 0-15.724874-29.872552 0L1653.206805-3.825287000000003zM1653.206805-35.275034000000005l29.872552 0 0-15.724874-29.872552 0L1653.206805-35.275034000000005zM1604.878713-3.825287000000003l28.813241 0 0-15.724874-28.813241 0L1604.878713-3.825287000000003zM1604.878713-35.275034000000005l28.813241 0 0-15.724874-28.813241 0L1604.878713-35.275034000000005zM646.014529 15.854344999999967c-11.723034 6.803126-24.175816 10.028138-37.334805 10.028138-18.149517 0-34.486437-6.426483-48.728276-19.279448-15.983816-14.689103-23.822713-32.932782-23.822713-55.107678 0-20.385839 7.13269-37.92331 21.327448-52.23577 14.218299-14.31246 31.308506-21.46869 51.22354-21.46869 13.865195 0 26.294437 3.225011 37.687908 9.651494 11.040368 6.426483 20.268138 15.34823 27.024184 27.165425 6.379402 11.817195 9.604414 24.317057 9.604414 37.240644 0 13.229609-3.225011 25.753011-9.604414 36.793379C666.63577 0.1294709999999668 657.737563 9.074758999999972 646.014529 15.854344999999967zM639.635126-84.33287399999995c-7.462253-9.321931-17.090207-13.935816-28.460138-13.935816s-20.997885 4.613885-28.460138 13.935816c-7.085609 9.321931-11.016828 21.46869-11.016828 36.181333 0 14.241839 3.931218 26.035494 11.393471 35.404506 7.438713 9.298391 16.690023 13.959356 28.059954 13.959356 11.723034 0 21.327448-4.660966 28.460138-13.959356 7.462253-8.968828 11.369931-21.092046 11.369931-35.404506C651.005057-63.170207000000005 647.097379-74.98740199999997 639.635126-84.33287399999995zM860.442483 23.716781999999967c-18.502621 0.729747-34.509977-6.779586-48.375172-21.798253-7.815356 14.241839-20.244598 21.46869-36.628598 21.798253-12.429241 0.400184-23.116506-2.448184-32.72092-8.921747-4.613885-2.848368-7.838897-6.073379-10.310621-9.321931l-1.05931 17.184368-31.991172 0 0-142.018207 35.545747 0 0 85.827678c0.376644 9.321931 2.495264 17.160828 7.13269 23.210667 5.320092 6.779586 12.099678 10.004598 20.997885 10.004598 16.690023 0 24.882023-11.087448 24.882023-33.615448l0-85.498115 32.367816 0 0 83.709057c0 23.610851 9.604414 35.404506 27.730391 35.404506 16.36046 0 24.52892-11.087448 24.52892-33.615448l0-85.498115 32.72092 0 0 83.332414c0 20.056276-4.966989 35.051402-13.865195 45.762207C883.535448 18.749792999999954 873.224828 23.410758999999985 860.442483 23.716781999999967z"  horiz-adv-x="1825" />

    
    <glyph glyph-name="search" unicode="&#58992;" d="M864.739786 40.4362l-154.089447 155.719574c57.540508 61.012585 93.028766 144.524604 93.028766 236.654908 0 186.854689-145.914254 338.330612-325.908698 338.330612S151.86171 619.665371 151.86171 432.810682 297.775964 94.480071 477.770408 94.480071c73.131601 0 140.638087 25.00551 195.016579 67.230194 0.208754-0.227174 0.416486-0.454348 0.635473-0.675382L828.370461 4.448568c5.003967-5.056156 11.593036-7.588839 18.185174-7.588839 6.502088 0 13.006222 2.463098 17.992793 7.397481C874.592179 14.195559 874.678136 30.394497 864.739786 40.4362zM477.770408 125.179256c-39.7227 0-78.251202 8.073886-114.51615 23.997554-35.121915 15.421224-66.688865 37.524638-93.825922 65.696258-27.214828 28.251438-48.587602 61.166081-63.524802 97.828073-15.488763 38.015825-23.342638 78.426187-23.342638 120.109542 0 41.683355 7.853875 82.09474 23.342638 120.109542 14.937201 36.661991 36.309974 69.575612 63.524802 97.828073 27.137057 28.17162 58.70503 50.275034 93.825922 65.696258 36.264948 15.923668 74.794473 23.997554 114.51615 23.997554 39.7227 0 78.251202-8.073886 114.51615-23.997554 35.121915-15.421224 66.688865-37.524638 93.825922-65.696258 27.214828-28.251438 48.587602-61.166081 63.524802-97.828073 15.488763-38.015825 23.342638-78.426187 23.342638-120.109542 0-41.683355-7.853875-82.09474-23.342638-120.109542-14.937201-36.661991-36.309974-69.575612-63.524802-97.828073-27.137057-28.17162-58.70503-50.275034-93.825922-65.696258C556.021609 133.253142 517.493108 125.179256 477.770408 125.179256z"  horiz-adv-x="1024" />

    
    <glyph glyph-name="mingx" unicode="&#58888;" d="M512 384m-512 0a512 512 0 1 1 1024 0 512 512 0 1 1-1024 0ZM503.038327 590.667294v-568.773438h260.847268s49.560261 256.975477 48.343843 411.718275c-1.216418 154.742797-309.191111 157.055163-309.191111 157.055163zM503.038327 590.667294v-568.773438H242.196078s-49.558588 256.975477-48.34217 411.718275c1.213072 154.742797 309.184418 157.055163 309.184419 157.055163zM439.418144 212.635608h127.242039v-142.515033h-127.242039zM439.418144 195.850039s53.525752-34.08481 127.242039-26.192314v42.979556h-127.242039v-16.787242zM193.855582 433.61715a70.835033 62.085856 90 1 1 124.171712 0 70.835033 62.085856 90 1 1-124.171712 0ZM688.056052 433.61715a70.835033 62.085856 90 1 1 124.171713 0 70.835033 62.085856 90 1 1-124.171713 0ZM749.890928 568.910641c0 104.339242-76.344889 180.684131-246.849255 180.68413s-246.845908-76.344889-246.845908-180.68413-17.812915-379.18285 246.845908-379.18285c264.66217 0.001673 246.849255 274.843608 246.849255 379.18285zM356.085961 450.576732a29.265987 26.721046 90 1 1 53.442091 0 29.265987 26.721046 90 1 1-53.442091 0ZM371.15817 463.497203m-7.991216 0a7.991216 7.991216 0 1 1 15.982432 0 7.991216 7.991216 0 1 1-15.982432 0ZM340.061699 513.676549c12.634353-4.835556 32.918588 16.440889 79.366693-2.069752 8.466405-3.376523 13.517804 28.864418-36.266667 28.864419-43.100026 0-50.736523-23.873255-43.100026-26.794667zM599.85485 450.576732a29.265987 26.721046 90 1 1 53.442091 0 29.265987 26.721046 90 1 1-53.442091 0ZM614.927059 463.497203m-7.991216 0a7.991216 7.991216 0 1 1 15.982432 0 7.991216 7.991216 0 1 1-15.982432 0ZM666.02332 513.676549c-12.636026-4.835556-32.925281 16.440889-79.368366-2.069752-8.468078-3.376523-13.519477 28.864418 36.261647 28.864419 43.106719 0 50.736523-23.873255 43.106719-26.794667zM503.038327 347.636288c-26.401464 0-42.305255 19.725386-42.305255 10.181437 0-9.540601 7.636497-27.678118 42.305255-27.678117 34.678797 0 42.308601 18.132497 42.308601 27.678117 0.00502 9.543948-15.905464-10.181438-42.308601-10.181437zM503.038327 259.893542c-9.128993 0-14.632157 6.814954-14.632157 3.522092 0-3.304575 2.640314-9.577412 14.632157-9.577412 11.99519 0 14.635503 6.272837 14.635503 9.577412 0 3.292863-5.499817-3.522092-14.635503-3.522092zM503.038327 284.205176c-41.850144 0-67.060288 17.043242-67.060288 12.723033 0-4.318536 12.097255-21.313255 67.060288-21.313255s67.065307 16.998065 67.065307 21.313255c0 4.316863-25.216837-12.723033-67.065307-12.723033zM348.444444 357.049725m-36.26332 0a36.26332 36.26332 0 1 1 72.526641 0 36.26332 36.26332 0 1 1-72.526641 0ZM662.091294 357.049725m-36.26332 0a36.26332 36.26332 0 1 1 72.52664 0 36.26332 36.26332 0 1 1-72.52664 0ZM503.038327 155.370248v-160.322928H224.389856c0 64.891817 132.323556 160.322928 278.648471 160.322928zM503.038327 155.370248v-160.322928h278.651817c0 64.891817-132.320209 160.322928-278.651817 160.322928zM449.937569 151.250824c-0.818196-0.115451-1.639739-0.281098-2.462955-0.406589a380.370824 380.370824 0 0 1-49.965176-11.483189l105.533908-144.312053v80.158118l-47.607634 76.692915c-1.823791-0.256-3.681046-0.371451-5.498143-0.649202zM556.142431 151.250824c0.823216-0.115451 1.644758-0.281098 2.467974-0.406589a380.308915 380.308915 0 0 0 49.965177-11.483189l-105.537255-144.312053v80.158118l47.607634 76.687896c1.822118-0.25098 3.681046-0.366431 5.49647-0.644183zM503.038327 876.963974c-287.561621 0-321.259922-203.411242-309.182745-443.348497 12.077176-239.940601 215.674144-358.40502 215.674143-358.405019s-228.146196 326.503739-38.369882 612.800418c0 0-35.634196-61.281046-33.70332-112.611556 0 0 44.706301 15.267974 165.58515 15.267974 120.885542 0 165.586824-15.267974 165.586824-15.267974 1.932549 51.33051-33.701647 112.611556-33.701647 112.611556C824.704837 401.717542 596.553621 75.210458 596.553621 75.210458s203.60366 118.464418 215.679163 358.405019c12.07383 239.937255-21.624471 443.348497-309.194457 443.348497zM439.418144 149.821908l63.620183-105.656052 63.61851 105.657726c0.003346 0.001673-66.00115 24.035556-127.238693-0.001674z"  horiz-adv-x="1024" />

    
    <glyph glyph-name="102fangxiang_xiangxia" unicode="&#58880;" d="M878.592 645.12q29.696 0 48.128-11.264t24.576-29.696 0-41.472-26.624-45.568q-82.944-92.16-159.744-180.224t-148.48-164.864q-19.456-20.48-45.568-31.744t-53.76-11.776-53.248 8.704-43.008 28.672Q380.928 209.91999999999996 337.92 256l-88.064 92.16q-43.008 46.08-85.504 90.624t-79.36 86.528q-17.408 19.456-22.528 40.448t1.024 38.4 23.552 28.672 45.056 11.264q35.84 0 98.816 0.512t137.728 0.512h509.952z"  horiz-adv-x="1024" />

    
    <glyph glyph-name="xiaoxi" unicode="&#58942;" d="M230.9 830.5h562.3c91.3 0 165.4-74 165.4-165.4v-562.3c0-91.3-74.1-165.4-165.4-165.4H230.9c-91.3 0-165.4 74-165.4 165.4V665.1c0 91.4 74 165.4 165.4 165.4zM512 648.6c-146.2 0-264.6-98.7-264.6-220.5 0-95.8 73.5-177.2 176-207.5-20.3-92.4-59.8-101.1-59.8-101.1 102.7 21 137.3 61.7 149 88.2 145.9 0.3 264.1 98.8 264.1 220.5-0.1 121.7-118.6 220.4-264.7 220.4z m49.6-281.1H396.2c-9.1 0-16.5 7.4-16.5 16.5s7.4 16.5 16.5 16.5h165.4c9.1 0 16.5-7.4 16.5-16.5 0.1-9.1-7.3-16.5-16.5-16.5z m66.2 99.2H396.2c-9.1 0-16.5 7.4-16.5 16.5s7.4 16.5 16.5 16.5h231.5c9.1 0 16.5-7.4 16.5-16.5 0.1-9.1-7.3-16.5-16.4-16.5z"  horiz-adv-x="1024" />

    
    <glyph glyph-name="expense" unicode="&#58893;" d="M117.028571 896h789.942858c64.365714 0 117.028571-52.662857 117.028571-117.028571v-789.942858c0-64.365714-52.662857-117.028571-117.028571-117.028571H117.028571c-64.365714 0-117.028571 52.662857-117.028571 117.028571V778.971429c0 64.365714 52.662857 117.028571 117.028571 117.028571zM512 384m-292.571429 0a292.571429 292.571429 0 1 1 585.142858 0 292.571429 292.571429 0 1 1-585.142858 0ZM529.554286 322.55999999999995v71.68h102.4V427.885714h-87.771429l-8.777143 8.777143 90.697143 90.697143-23.405714 23.405714-90.697143-90.697143-90.697143 90.697143-23.405714-23.405714 90.697143-90.697143-8.777143-8.777143h-87.771429v-33.645714h103.862857v-71.68h-103.862857v-33.645714h103.862857v-99.474286h33.645715v99.474286h102.4v33.645714h-102.4z"  horiz-adv-x="1024" />

    
    <glyph glyph-name="liaotianduihua" unicode="&#59580;" d="M510.4 832.8c-212 0-384-172-384-384 0-184.8 131.2-340 305.6-376l80-138.4 80 138.4C764.8 110.39999999999998 894.4 264 894.4 448c0 212.8-172 384.8-384 384.8zM319.2 384c-35.2 0-64 28.8-64 64s28.8 64 64 64 64-28.8 64-64-28.8-64-64-64zM512 384c-35.2 0-64 28.8-64 64s28.8 64 64 64 64-28.8 64-64-28.8-64-64-64z m191.2 0c-35.2 0-64 28.8-64 64s28.8 64 64 64 64-28.8 64-64-28.8-64-64-64z"  horiz-adv-x="1024" />

    
    <glyph glyph-name="liaotianduihua-xianxing" unicode="&#59581;" d="M511.2 768.8c176.8 0 320-143.2 320-320 0-149.6-106.4-281.6-252-312.8l-28-5.6-14.4-24.8-24.8-42.4-24 42.4-14.4 24.8-28 5.6c-147.2 30.4-254.4 162.4-254.4 313.6 0 176 143.2 319.2 320 319.2m0 64c-212 0-384-172-384-384 0-184.8 131.2-340 305.6-376l80-138.4 80 138.4C765.6 110.39999999999998 895.2 264 895.2 448c0 212.8-172 384.8-384 384.8zM320 512c-35.2 0-64-28.8-64-64s28.8-64 64-64 64 28.8 64 64-28.8 64-64 64z m192 0c-35.2 0-64-28.8-64-64s28.8-64 64-64 64 28.8 64 64-28.8 64-64 64z m192 0c-35.2 0-64-28.8-64-64s28.8-64 64-64 64 28.8 64 64-28.8 64-64 64z"  horiz-adv-x="1024" />

    
    <glyph glyph-name="shoucang" unicode="&#59586;" d="M519.2 88.79999999999995l255.2-133.6c12-6.4 25.6 4 23.2 16.8L748.8 256c-0.8 4.8 0.8 10.4 4.8 14.4L960 471.2c9.6 9.6 4 25.6-8.8 27.2l-284.8 41.6c-5.6 0.8-9.6 4-12 8.8l-128 257.6c-5.6 12-23.2 12-28.8 0L370.4 548c-2.4-4.8-7.2-8-12-8.8L73.6 497.6c-13.6-1.6-18.4-17.6-8.8-27.2l206.4-200.8c4-4 5.6-8.8 4.8-14.4l-48.8-284c-2.4-12.8 11.2-23.2 23.2-16.8L505.6 88c4 3.2 8.8 3.2 13.6 0.8z"  horiz-adv-x="1024" />

    
    <glyph glyph-name="shoucang-xianxing" unicode="&#59587;" d="M512 690.4L596 520c12-24 34.4-40 60-44l188.8-27.2-136-133.6c-19.2-18.4-27.2-44.8-23.2-71.2l32-188-168 89.6c-11.2 6.4-24 8.8-37.6 8.8-12.8 0-25.6-3.2-37.6-8.8l-168.8-88.8 32 188c4.8 25.6-4 52.8-23.2 71.2l-136 132.8 188.8 27.2C393.6 480 416 496 428 520L512 690.4m0 124.8c-5.6 0-11.2-3.2-14.4-8.8L370.4 548c-2.4-4.8-7.2-8-12-8.8L73.6 497.6c-13.6-1.6-18.4-17.6-8.8-27.2l206.4-200.8c4-4 5.6-8.8 4.8-14.4l-48.8-284c-1.6-10.4 6.4-18.4 16-18.4 2.4 0 4.8 0.8 7.2 1.6L505.6 88c2.4 1.6 4.8 1.6 7.2 1.6s4.8-0.8 7.2-1.6l255.2-133.6c2.4-1.6 4.8-1.6 7.2-1.6 9.6 0 17.6 8 16 18.4l-48.8 284c-0.8 4.8 0.8 10.4 4.8 14.4l206.4 200.8c9.6 9.6 4 25.6-8.8 27.2l-284.8 41.6c-5.6 0.8-9.6 4-12 8.8L526.4 806.4c-3.2 5.6-8.8 8.8-14.4 8.8z"  horiz-adv-x="1024" />

    
    <glyph glyph-name="yonghu-xianxing" unicode="&#59592;" d="M512 703.2c70.4 0 128-57.6 128-128s-57.6-128-128-128c-36 0-68.8 14.4-93.6 40.8-24.8 26.4-36.8 60-34.4 96 4 63.2 56.8 115.2 120 118.4 2.4 0.8 4.8 0.8 8 0.8M512 256c53.6 0 140.8-13.6 216-43.2 64-25.6 104-57.6 104-84v-64.8H192v64.8c0 26.4 40 58.4 104 84 75.2 29.6 162.4 43.2 216 43.2m0 511.2h-11.2c-96-5.6-174.4-83.2-180.8-178.4-7.2-112 80.8-204.8 191.2-204.8 105.6 0 192 86.4 192 192S617.6 767.2 512 767.2zM512 320c-128 0-384-64-384-191.2v-96c0-17.6 14.4-32 32-32h704c17.6 0 32 14.4 32 32V129.60000000000002C896 256 640 320 512 320z"  horiz-adv-x="1024" />

    
    <glyph glyph-name="yonghu" unicode="&#59593;" d="M500 767.2c-95.2-5.6-173.6-83.2-180-178.4-7.2-112 80.8-205.6 191.2-205.6 106.4 0 192 86.4 192 192 0.8 110.4-92 198.4-203.2 192zM512 320.79999999999995c-128 0-383.2-64-383.2-192v-96c0-17.6 14.4-32 32-32h702.4c17.6 0 32 14.4 32 32V129.60000000000002c0 127.2-255.2 191.2-383.2 191.2z"  horiz-adv-x="1024" />

    
    <glyph glyph-name="tequanshouxufei" unicode="&#58902;" d="M512.430252-128C230.098824-128 0.430252 101.66857100000004 0.430252 384S230.098824 896 512.430252 896s512-229.668571 512-512-229.668571-512-512-512z m0 994.742857C246.190252 866.742857 29.687395 650.24 29.687395 384s216.502857-482.742857 482.742857-482.742857 482.742857 216.502857 482.742857 482.742857S778.670252 866.742857 512.430252 866.742857zM674.807395 663.405714c-21.942857 0-40.96-17.554286-40.96-40.96 0-21.942857 17.554286-40.96 40.96-40.96 21.942857 0 40.96 17.554286 40.96 40.96 0 23.405714-17.554286 40.96-40.96 40.96z m0-106.788571c-36.571429 0-67.291429 30.72-67.291429 67.291428 0 36.571429 30.72 67.291429 67.291429 67.291429 36.571429 0 67.291429-30.72 67.291429-67.291429 1.462857-38.034286-29.257143-67.291429-67.291429-67.291428z m-36.571429-86.308572c-21.942857 0-40.96-17.554286-40.96-40.96 0-21.942857 17.554286-40.96 40.96-40.96 21.942857 0 40.96 17.554286 40.96 40.96 0 23.405714-19.017143 40.96-40.96 40.96z m0-108.251428c-36.571429 0-67.291429 30.72-67.291428 67.291428s30.72 67.291429 67.291428 67.291429 67.291429-30.72 67.291429-67.291429-29.257143-67.291429-67.291429-67.291428zM490.487395 565.394286c-21.942857 0-40.96-17.554286-40.96-40.96s17.554286-40.96 40.96-40.96 40.96 17.554286 40.96 40.96-17.554286 40.96-40.96 40.96z m0-108.251429c-36.571429 0-67.291429 30.72-67.291429 67.291429s30.72 67.291429 67.291429 67.291428c36.571429 0 67.291429-30.72 67.291429-67.291428s-29.257143-67.291429-67.291429-67.291429zM783.058824 378.14857099999995c-7.314286 4.388571-14.628571 5.851429-21.942858 5.851429-21.942857 0-39.497143-17.554286-46.811428-24.868571-19.017143-20.48-43.885714-40.96-54.125714-49.737143-4.388571 1.462857-10.24 2.925714-16.091429 2.925714-36.571429 1.462857-95.085714 8.777143-108.251429 17.554286-16.091429 8.777143-27.794286 17.554286-38.034285 26.331428l-1.462857 1.462857c-32.182857 23.405714-58.514286 40.96-121.417143 40.96-17.554286 0-33.645714-4.388571-51.2-10.24H322.258824c-14.628571-4.388571-29.257143-8.777143-46.811429-8.777142-21.942857 0-39.497143-17.554286-39.497143-39.497143v-92.16c0-21.942857 17.554286-39.497143 39.497143-39.497143 39.497143 0 89.234286-1.462857 99.474286-5.851429 21.942857-7.314286 73.142857-36.571429 89.234285-46.811428 7.314286-2.925714 14.628571-5.851429 21.942858-5.851429h166.765714c19.017143 0 39.497143 17.554286 46.811428 29.257143 8.777143 14.628571 32.182857 48.274286 98.011429 131.657143 1.462857 2.925714 2.925714 4.388571 2.925714 4.388571s1.462857 1.462857 1.462857 2.925715c10.24 20.48 2.925714 46.811429-19.017142 59.977142z m-141.897143-118.491428l-124.342857-7.314286c-8.777143 0-35.108571 19.017143-46.811429 27.794286-1.462857 1.462857-4.388571 2.925714-5.851429 4.388571-1.462857 1.462857-4.388571 2.925714-5.851428 4.388572-10.24 7.314286-17.554286 11.702857-24.868572 14.628571-2.925714 1.462857-5.851429 1.462857-8.777142 1.462857-7.314286 0-14.628571-4.388571-17.554286-10.24-4.388571-8.777143-1.462857-21.942857 8.777143-26.331428 7.314286-2.925714 14.628571-8.777143 24.868571-16.091429 2.925714-1.462857 4.388571-2.925714 7.314286-4.388571h1.462857c24.868571-17.554286 48.274286-33.645714 68.754286-33.645715l125.805714 7.314286c24.868571 0 45.348571 20.48 45.348571 46.811429 0 4.388571 0 8.777143-1.462857 14.628571 16.091429 13.165714 38.034286 32.182857 55.588572 51.2 8.777143 8.777143 14.628571 13.165714 17.554285 13.165714h2.925715c2.925714-1.462857 5.851429-4.388571 4.388571-8.777142-5.851429-8.777143-80.457143-100.937143-102.4-138.971429-1.462857-2.925714-10.24-8.777143-13.165714-10.24H481.710252c-20.48 13.165714-70.217143 42.422857-96.548571 51.2-21.942857 7.314286-96.548571 7.314286-111.177143 7.314286v90.697143c24.868571 0 43.885714 7.314286 59.977143 11.702857 14.628571 4.388571 26.331429 8.777143 39.497143 8.777143 51.2 0 68.754286-13.165714 99.474285-35.108572l1.462857-1.462857c11.702857-8.777143 24.868571-17.554286 40.96-27.794286 7.314286-4.388571 20.48-8.777143 39.497143-13.165714 33.645714-7.314286 73.142857-8.777143 86.308572-10.24h1.462857c1.462857 0 2.925714 0 4.388571-1.462857s1.462857-2.925714 1.462857-4.388572c0-4.388571-2.925714-5.851429-7.314285-5.851428z"  horiz-adv-x="1054" />

    
    <glyph glyph-name="EPCzuodaohangtubiao-" unicode="&#59274;" d="M732.16 312.32000000000005h-25.6c0 122.88-102.4 225.28-220.16 225.28s-215.04-102.4-215.04-225.28h-25.6c-107.52 0-189.44-87.04-189.44-194.56S138.24-76.79999999999995 240.64-76.79999999999995h486.4c107.52 0 189.44 87.04 189.44 194.56s-81.92 194.56-184.32 194.56z m0-337.92H240.64C163.84-25.600000000000023 102.4 35.84000000000003 102.4 117.75999999999999s61.44 143.36 138.24 143.36c10.24 0 25.6 0 35.84-5.12l76.8-30.72c-25.6 46.08-25.6 76.8-25.6 76.8v20.48C322.56 409.6 394.24 486.4 486.4 486.4s163.84-76.8 163.84-168.96v-20.48s-5.12-35.84-20.48-61.44c0 0 56.32 20.48 66.56 20.48 10.24 5.12 25.6 5.12 35.84 5.12 76.8 0 138.24-61.44 138.24-143.36S808.96-25.600000000000023 732.16-25.600000000000023zM808.96 430.08h-30.72c0 10.24 0 20.48-5.12 25.6-5.12 66.56-35.84 122.88-76.8 168.96-5.12 10.24-15.36 15.36-30.72 25.6-46.08 35.84-102.4 56.32-163.84 56.32-102.4 0-194.56-56.32-240.64-143.36C312.32 609.28 378.88 640 455.68 640c56.32 0 107.52-10.24 153.6-35.84 0 0 5.12-5.12 10.24-5.12s5.12-5.12 10.24-5.12c61.44-46.08 107.52-122.88 107.52-215.04v-5.12c10.24 0 20.48 5.12 30.72 5.12 117.76 0 215.04-102.4 215.04-230.4 0-51.2-15.36-102.4-46.08-138.24 56.32 40.96 97.28 112.64 97.28 189.44-10.24 128-107.52 230.4-225.28 230.4z"  horiz-adv-x="1034" />

    
    <glyph glyph-name="anquan" unicode="&#58890;" d="M846.574933 678.434133c10.683733-9.591467 16.896-23.210667 16.896-37.410133v-128.2048c0-474.112-324.5056-535.210667-338.158933-537.6a52.770133 52.770133 0 0 0-9.454933-0.8192c-3.072 0-6.314667 0.341333-9.4208 0.785067-13.653333 2.389333-335.7696 63.419733-335.7696 537.634133V641.024c0 14.199467 6.109867 27.818667 16.896 37.410133 9.898667 8.942933 23.005867 13.858133 36.4544 13.858134 1.262933 0 2.389333 0 3.549866-0.1024 0.8192-0.136533 9.4208-0.580267 22.766934-0.580267 22.186667 0 66.218667 1.501867 107.246933 11.229867 62.532267 14.7456 126.532267 80.6912 128.750933 82.158933a54.8864 54.8864 0 0 0 59.323734-0.136533c17.783467-11.400533 78.848-69.461333 131.822933-82.0224 40.96-9.728 84.2752-11.264 106.461867-11.264 13.312 0 21.947733 0.477867 22.6304 0.6144 1.262933 0.1024 2.389333 0.1024 3.6864 0.1024 13.448533 0 26.4192-4.9152 36.317866-13.858134z m-79.428266-34.986666c-1.1264 0-2.116267 0-3.208534-0.1024a270.677333 270.677333 0 0 0-19.626666-0.512c-19.217067 0-56.763733 1.297067-92.228267 9.728-45.943467 10.922667-98.850133 61.201067-114.2784 71.133866a47.547733 47.547733 0 0 1-51.4048 0.1024c-1.911467-1.297067-57.378133-58.436267-111.581867-71.236266-35.566933-8.430933-73.728-9.728-92.945066-9.728a277.845333 277.845333 0 0 0-19.729067 0.512c-1.024 0.1024-2.013867 0.1024-3.072 0.1024-11.6736 0-23.04-4.266667-31.607467-12.014934-9.352533-8.328533-14.6432-20.138667-14.6432-32.426666v-111.104c0-410.965333 279.1424-463.872 291.0208-465.92a45.738667 45.738667 0 0 1 16.349867 0c11.810133 2.048 293.0688 55.022933 293.0688 465.92V599.0058670000001c0 12.288-5.393067 24.098133-14.677333 32.426666a46.865067 46.865067 0 0 1-31.4368 12.014934zM705.024 491.281067l-200.635733-193.297067a29.627733 29.627733 0 0 0-26.0096-14.097067 30.037333 30.037333 0 0 0-21.4016 8.226134 27.648 27.648 0 0 0-4.642134 5.870933l-107.3152 103.355733a27.306667 27.306667 0 0 0 0 39.765334 29.969067 29.969067 0 0 0 41.301334 0l91.921066-88.610134 185.344 178.517334a29.969067 29.969067 0 0 0 41.335467 0 27.306667 27.306667 0 0 0 0.1024-39.7312z"  horiz-adv-x="1024" />

    
    <glyph glyph-name="chuangjian_zidingyi" unicode="&#58903;" d="M51.2 458.24h921.6v-131.584H51.2V458.24zM445.952-76.79999999999995V844.8h131.584v-921.6H445.952z"  horiz-adv-x="1024" />

    
    <glyph glyph-name="yunzhujijiankong" unicode="&#58965;" d="M608 800c19.2 0 32-12.8 32-32v-576c0-19.2-12.8-32-32-32h-192c-19.2 0-32 12.8-32 32V768c0 19.2 12.8 32 32 32h192m0 64h-192C364.8 864 320 819.2 320 768v-576c0-51.2 44.8-96 96-96h192c51.2 0 96 44.8 96 96V768c0 51.2-44.8 96-96 96zM448 736h128v-64H448zM448 608h128v-64H448zM512 352m-64 0a64 64 0 1 1 128 0 64 64 0 1 1-128 0ZM780.8 384h-19.2c-12.8 32-38.4 57.6-57.6 76.8V352l19.2-38.4 44.8 6.4H787.2c96 0 179.2-76.8 179.2-179.2 0-89.6-70.4-166.4-166.4-172.8H192c-70.4 0-128 57.6-128 128s57.6 128 128 128h64l6.4 57.6c6.4 44.8 25.6 89.6 57.6 121.6V486.4c-64-44.8-108.8-115.2-121.6-198.4H192c-108.8 0-192-83.2-192-192s83.2-192 192-192h608c128 6.4 224 108.8 224 236.8C1024 275.20000000000005 915.2 384 780.8 384z"  horiz-adv-x="1024" />

    
    <glyph glyph-name="hcs_sgw" unicode="&#59277;" d="M892.928 396.288c-45.056 45.056-116.736 45.056-161.792 0-36.864-36.864-43.008-92.16-20.48-135.168l-108.544-108.544c-51.2-51.2-137.216-45.056-194.56 10.24s-61.44 143.36-10.24 194.56l124.928 124.928-45.056 45.056-124.928-124.928c-75.776-75.776-71.68-204.8 10.24-286.72 43.008-43.008 98.304-65.536 153.6-65.536 49.152 0 96.256 18.432 133.12 53.248l108.544 108.544c16.384-8.192 34.816-14.336 55.296-14.336 28.672 0 59.392 10.24 79.872 32.768 45.056 49.152 45.056 122.88 0 165.888zM847.872 281.6c-18.432-18.432-51.2-18.432-69.632 0-18.432 18.432-18.432 51.2 0 69.632 10.24 10.24 22.528 14.336 34.816 14.336s24.576-4.096 34.816-14.336c18.432-18.432 18.432-51.2 0-69.632zM296.96 523.264l108.544 108.544c51.2 51.2 137.216 45.056 194.56-10.24 26.624-26.624 43.008-63.488 45.056-100.352 2.048-36.864-10.24-69.632-34.816-94.208L485.376 302.08000000000004l45.056-45.056 124.928 124.928c36.864 36.864 55.296 88.064 53.248 141.312-2.048 53.248-24.576 104.448-63.488 143.36-81.92 81.92-208.896 86.016-286.72 10.24L249.856 568.3199999999999c-43.008 22.528-98.304 16.384-135.168-20.48-45.056-45.056-45.056-116.736 0-161.792 22.528-22.528 51.2-32.768 79.872-32.768s59.392 10.24 79.872 32.768c38.912 38.912 45.056 94.208 22.528 137.216z m-65.536-90.112c-18.432-18.432-51.2-18.432-69.632 0-18.432 18.432-18.432 51.2 0 69.632 10.24 10.24 22.528 14.336 34.816 14.336 12.288 0 24.576-4.096 34.816-14.336 18.432-18.432 18.432-49.152 0-69.632z"  horiz-adv-x="1024" />

    
    <glyph glyph-name="gailan" unicode="&#58991;" d="M512 786.113l-338.602-212.38L512 355.163l338.602 218.568L512 786.112zM512 896l512-321.14-512-330.496L0 574.86 512 896zM950.857 246.36900000000003L1024 200.15700000000004 512-128 0 200.15700000000004l73.143 46.212L512-34.90999999999997l438.857 281.278zM950.857 432.55L1024 386.34 512 58.182000000000016 0 386.339l73.143 46.211L512 151.27300000000002 950.857 432.55z"  horiz-adv-x="1024" />

    
    <glyph glyph-name="yunzhuomian" unicode="&#59358;" d="M704 0v-64H320v64h384zM1024 128H0V768h1024v-640zM64 192h896V704H64v-512zM678.4 467.2c-6.4 6.4-6.4 6.4-6.4 12.8 6.4 89.6-57.6 160-153.6 160-102.4 0-147.2-64-160-140.8-64 0-115.2-51.2-115.2-121.6 0-64 51.2-121.6 115.2-121.6h320c57.6 0 102.4 44.8 102.4 102.4s-44.8 108.8-102.4 108.8z m-19.2-166.4H377.6c-51.2 0-89.6 19.2-89.6 76.8 0 57.6 44.8 76.8 96 76.8h12.8v12.8c6.4 57.6 32 121.6 115.2 121.6s121.6-64 121.6-134.4v-25.6H652.8c44.8 0 83.2-25.6 83.2-64s-32-64-76.8-64z"  horiz-adv-x="1024" />

    
    <glyph glyph-name="cunchu-duixiangcunchu" unicode="&#58892;" d="M416.51206 64.44788000000005H288.32014c-59.839963 0-116.223927 23.295985-158.591901 65.535959S64.06428 228.479777 64.06428 288.25573999999995c0 59.711963 23.295985 115.967928 65.663959 158.207901S228.480177 511.9996 288.32014 511.9996a31.99998 31.99998 0 0 1 32.06398 31.99998v0.384c0 76.799952 30.015981 149.119907 84.479947 203.391873S531.711988 832.0634 608.70394 832.0634c46.271971 0 90.495943-10.559993 131.327917-31.48798 39.039976-19.967988 73.599954-49.023969 99.839938-84.223948a31.99998 31.99998 0 0 1 51.391968 38.271976A355.519778 355.519778 0 0 1 769.343839 857.535384 355.519778 355.519778 0 0 1 608.70394 895.99936a350.975781 350.975781 0 0 1-249.151845-102.975936 350.719781 350.719781 0 0 1-101.951936-218.687863A287.103821 287.103821 0 0 1 84.480267 491.711613C30.016301 437.375647 0.00032 365.055692 0.00032 288.25573999999995s30.015981-149.119907 84.479947-203.391873a286.527821 286.527821 0 0 1 203.839873-84.287947h128.12792a31.99998 31.99998 0 1 1 0.064 63.87196zM735.99986 511.9996a31.99998 31.99998 0 0 0 31.99998-31.99998v-447.99972a31.99998 31.99998 0 0 0-63.99996 0v447.99972a31.99998 31.99998 0 0 0 31.99998 31.99998zM726.655866 553.343574a31.99998 31.99998 0 0 0 45.247972 0l180.991886-180.991887a31.99998 31.99998 0 0 0-45.247971-45.247971l-180.991887 180.991886a31.93598 31.93598 0 0 0 0 45.247972zM760.895844 553.343574a31.99998 31.99998 0 0 0 0-45.247972L579.903958 327.10371599999996a31.99998 31.99998 0 0 0-45.247972 45.247971l180.991887 180.991887a31.93598 31.93598 0 0 0 45.247971 0zM543.99998-64.00004000000001h383.99976a31.99998 31.99998 0 0 0 0-63.99996h-383.99976a31.99998 31.99998 0 0 0 0 63.99996z"  horiz-adv-x="1024" />

    
    <glyph glyph-name="fanghuoqiangcelveyanzhengjikaitong-" unicode="&#59066;" d="M512.919 18.456999999999994c-24.38 13.173-84.21 47.724-144.979 99.818-45.582 39.097-81.496 79.164-106.729 119.075-31.328 49.543-47.211 98.869-47.211 146.611V643.279l297.883 107.952 298.116-107.613v-259.582c0-49.366-15.572-99.094-46.283-147.801-25.772-40.85-61.46-80.858-106.058-118.895-60.471-51.58-120.223-85.773-144.739-98.883zM511.867 789c0.944 0 1.871-0.163 2.757-0.484l0.031-0.012 0.032-0.012 325.251-117.408 0.737-0.269a8.116 8.116 0 0 0 5.325-7.678l-0.001-0.14v-278.962c0-56.268-17.438-112.455-51.826-166.993-27.721-43.938-65.792-86.699-113.155-127.095-81.569-69.576-163.077-109.442-164.104-109.936l-0.142-0.066-0.185-0.09a8.448 8.448 0 0 0-3.723-0.855 8.703 8.703 0 0 0-3.827 0.896l-0.267 0.132-0.199 0.095c-1.872 0.918-82.619 41.002-164.056 110.813-48.319 41.444-86.585 84.232-113.735 127.179-35.023 55.387-52.781 111.186-52.781 165.847V662.8489999999999c0 3.287 2.589 6.612 6.148 7.903l324.952 117.762a8.125 8.125 0 0 0 2.768 0.486m0 36a44.1 44.1 0 0 1-15.047-2.646l-324.937-117.756c-17.557-6.367-29.883-23.049-29.883-41.749V383.962c0-62.276 20.074-124.55 58.354-185.087 29.344-46.414 70.188-91.916 120.726-135.264 84.565-72.493 168.482-114.316 172.003-115.985a44.63 44.63 0 0 1 19.783-4.626 44.496 44.496 0 0 1 19.467 4.48c3.598 1.699 87.403 42.878 172.048 115.077 50.64 43.189 90.854 88.697 120.24 135.275 38.259 60.678 57.379 123.332 57.379 186.202V662.858a44.087 44.087 0 0 1-28.996 41.781h0.008L526.911 822.354a44.083 44.083 0 0 1-15.044 2.646zM498 42.96500000000003c-28.938 16.997-74.82 46.396-120.949 85.939-44.525 38.191-79.52 77.195-104.007 115.928-26.813 42.403-41.769 84.439-44.563 125.168h269.52v-327.035zM484 356V67.85199999999998c-27.275 17.128-62.477 41.369-97.831 71.677-43.47 37.285-77.549 75.231-101.292 112.787-22.247 35.181-35.918 69.931-40.822 103.685h239.945m28 27.999h-298v-0.038c0-47.742 15.883-97.068 47.211-146.611 25.232-39.911 61.146-79.979 106.729-119.075 60.039-51.469 119.137-85.797 144.061-99.319V384h-0.001zM526 398V731.251l269.999-97.464v-235.787zM540 711.313l241.999-87.356v-211.956h-241.999V711.313m-28 39.876v-367.188h297.999V643.6179999999999l-297.999 107.571z"  horiz-adv-x="1024" />

    
    <glyph glyph-name="goLeft" unicode="&#58881;" d="M129.6995467 405.30226442l495.74990381-534.0229278 228.72937813 0-495.74990381 534.02292779 495.75119835 495.73048572-228.73067267 0-495.75119834-495.73048571zM129.6995467 405.30226442z"  horiz-adv-x="1000" />

    
    <glyph glyph-name="goLeft1" unicode="&#58882;" d="M894.3004533 362.69773556999996l-495.74990381 534.02292781-228.72937813 0 495.74990381-534.02292779-495.75119835-495.73048572 228.73067267 0 495.75119834 495.7304857zM894.3004533 362.69773556999996z"  horiz-adv-x="1000" />

    
    <glyph glyph-name="icon_shujucunchu" unicode="&#58891;" d="M844.8-25.600000000000023h-665.6C107.52-25.600000000000023 51.2 30.720000000000027 51.2 102.39999999999998v563.2C51.2 737.28 107.52 793.6 179.2 793.6h665.6C916.48 793.6 972.8 737.28 972.8 665.6v-563.2c0-71.68-56.32-128-128-128zM179.2 742.4C138.24 742.4 102.4 706.56 102.4 665.6v-563.2c0-40.96 35.84-76.8 76.8-76.8h665.6c40.96 0 76.8 35.84 76.8 76.8v563.2c0 40.96-35.84 76.8-76.8 76.8h-665.6zM256 435.2h102.4v-307.2H256zM460.8 537.6h102.4v-409.6H460.8zM665.6 640h102.4v-512h-102.4z"  horiz-adv-x="1024" />

    
    <glyph glyph-name="gengduocaozuo" unicode="&#58889;" d="M511.996577 659.689702a114.211695 114.211695 0 0 0-83.492687 34.657342A113.424028 113.424028 0 0 0 393.846548 777.839731 113.424028 113.424028 0 0 0 428.50389 861.332418 114.211695 114.211695 0 0 0 511.996577 895.98976a114.211695 114.211695 0 0 0 83.492687-34.657342A113.424028 113.424028 0 0 0 630.146606 777.839731a113.424028 113.424028 0 0 0-34.657342-83.492687A114.211695 114.211695 0 0 0 511.996577 659.689702z m0-157.533372a114.211695 114.211695 0 0 0 83.492687-34.657342 118.150029 118.150029 0 0 0 0-167.773041A114.211695 114.211695 0 0 0 511.996577 265.856272a114.211695 114.211695 0 0 0-83.492687 34.657342 118.150029 118.150029 0 0 0 0 167.773041A114.211695 114.211695 0 0 0 511.996577 502.15633z m0-393.83343a114.211695 114.211695 0 0 0 83.492687-34.657342 118.150029 118.150029 0 0 0 0-167.773041A114.211695 114.211695 0 0 0 511.996577-127.97715800000003a114.211695 114.211695 0 0 0-83.492687 34.657342 118.150029 118.150029 0 0 0 0 167.773041A114.211695 114.211695 0 0 0 511.996577 108.3229zM511.996577 659.689702a114.211695 114.211695 0 0 0-83.492687 34.657342A113.424028 113.424028 0 0 0 393.846548 777.839731 113.424028 113.424028 0 0 0 428.50389 861.332418 114.211695 114.211695 0 0 0 511.996577 895.98976a114.211695 114.211695 0 0 0 83.492687-34.657342A113.424028 113.424028 0 0 0 630.146606 777.839731a113.424028 113.424028 0 0 0-34.657342-83.492687A114.211695 114.211695 0 0 0 511.996577 659.689702z m0-157.533372a114.211695 114.211695 0 0 0 83.492687-34.657342 118.150029 118.150029 0 0 0 0-167.773041A114.211695 114.211695 0 0 0 511.996577 265.856272a114.211695 114.211695 0 0 0-83.492687 34.657342 118.150029 118.150029 0 0 0 0 167.773041A114.211695 114.211695 0 0 0 511.996577 502.15633z m0-393.83343a114.211695 114.211695 0 0 0 83.492687-34.657342 118.150029 118.150029 0 0 0 0-167.773041A114.211695 114.211695 0 0 0 511.996577-127.97715800000003a114.211695 114.211695 0 0 0-83.492687 34.657342 118.150029 118.150029 0 0 0 0 167.773041A114.211695 114.211695 0 0 0 511.996577 108.3229z"  horiz-adv-x="1024" />

    
    <glyph glyph-name="gongdan" unicode="&#58952;" d="M516.266667 580.266667m-21.333334 0a21.333333 21.333333 0 1 1 42.666667 0 21.333333 21.333333 0 1 1-42.666667 0ZM614.4 405.333333H409.6c-12.8 0-25.6-12.8-25.6-25.6s12.8-25.6 25.6-25.6h204.8c12.8 0 25.6 12.8 25.6 25.6s-12.8 25.6-25.6 25.6zM541.866667 277.33333300000004H409.6c-12.8 0-25.6-12.8-25.6-25.6s12.8-25.6 25.6-25.6h132.266667c12.8 0 25.6 12.8 25.6 25.6s-12.8 25.6-25.6 25.6zM772.266667 793.6h-512c-93.866667 0-170.666667-76.8-170.666667-170.666667v-512c0-93.866667 76.8-170.666667 170.666667-170.666666h512c93.866667 0 170.666667 76.8 170.666666 170.666666v512c0 93.866667-76.8 170.666667-170.666666 170.666667zM409.6 558.933333c0 12.8 8.533333 21.333333 21.333333 21.333334h21.333334c12.8 0 21.333333 8.533333 21.333333 21.333333s8.533333 21.333333 21.333333 21.333333h42.666667c12.8 0 21.333333-8.533333 21.333333-21.333333s8.533333-21.333333 21.333334-21.333333h21.333333c12.8 0 21.333333-8.533333 21.333333-21.333334v-21.333333c0-12.8-8.533333-21.333333-21.333333-21.333333H426.666667c-12.8 0-21.333333 8.533333-21.333334 21.333333v21.333333z m315.733333-405.333333c0-21.333333-17.066667-34.133333-34.133333-34.133333H345.6c-21.333333 0-34.133333 17.066667-34.133333 34.133333V529.066667c0 12.8 8.533333 25.6 25.6 25.6h38.4v-25.6c0-25.6 21.333333-46.933333 46.933333-46.933334h192c25.6 0 46.933333 21.333333 46.933333 46.933334V554.666667h38.4c12.8 0 25.6-12.8 25.6-25.6v-375.466667z"  horiz-adv-x="1024" />

    
    <glyph glyph-name="jinggao" unicode="&#58894;" d="M628.740551 35.04355599999997a81.237333 81.237333 0 0 0-59.619555-24.803556c-23.210667 0-43.614815 8.229926-60.226371 24.803556a80.251259 80.251259 0 0 0-25.41037 60.264296c0 23.210667 8.267852 43.766519 25.41037 60.264296a80.782222 80.782222 0 0 0 60.226371 25.486222c23.172741 0 43.083852-8.267852 59.619555-25.486222 17.21837-16.497778 25.41037-37.05363 25.41037-60.302222 0-23.703704-8.192-43.614815-25.41037-60.22637zM507.832699 603.553185c16.004741 17.066667 36.522667 25.941333 61.288297 25.941334 24.841481 0 45.321481-8.267852 61.364148-25.97926 15.473778-17.104593 23.703704-38.684444 23.703703-64.739555 0-22.072889-33.185185-186.330074-44.67674-305.758815h-80.137482c-9.40563 119.466667-45.89037 283.723852-45.89037 305.758815 0 25.448296 8.305778 47.028148 24.348444 64.739555z m606.58726-558.535111L668.03181 824.699259c-54.689185 95.080296-143.701333 95.080296-198.314666 0L23.328996 45.018073999999956C-31.284338-50.02429600000005 13.354477-128 122.732847-128h892.776297c108.847407 0 153.6 77.975704 98.910815 173.018074z"  horiz-adv-x="1137" />

    
    <glyph glyph-name="shanchu" unicode="&#59005;" d="M239.173265 568.6300209999999h-81.762166l55.492872-551.461757c4.629437-46.004777 43.351344-81.026408 89.588411-81.026408h419.018306c46.237067 0 84.958974 35.020608 89.589434 81.026408l55.492872 551.461757h-81.761142m-54.674227-543.315216a8.664334 8.664334 0 0 0-8.645914-7.82113H302.493405a8.664334 8.664334 0 0 0-8.646937 7.820106l-54.673203 543.31624h545.658587l-54.674227-543.315216zM641.143289 751.111099H379.527896c-22.427802 0-40.609906 18.182105-40.609906 40.609906v0.130983c0 22.427802 18.182105 40.609906 40.609906 40.609907h261.615393c22.427802 0 40.609906-18.182105 40.609906-40.609907v-0.130983c0-22.427802-18.182105-40.609906-40.609906-40.609906zM893.050576 568.6300209999999H127.619586c-22.427802 0-40.609906 18.182105-40.609907 40.609906v0.130984c0 22.427802 18.182105 40.609906 40.609907 40.609906h765.43099c22.427802 0 40.609906-18.182105 40.609906-40.609906v-0.130984c0-22.427802-18.181081-40.609906-40.609906-40.609906zM469.659683 177.67895799999997V386.998287c0 22.427802 18.182105 40.609906 40.609906 40.609907h0.130983c22.427802 0 40.609906-18.182105 40.609907-40.609907v-209.318306c0-22.427802-18.182105-40.609906-40.609907-40.609907h-0.130983c-22.427802-0.001023-40.609906 18.181081-40.609906 40.608884z"  horiz-adv-x="1024" />

    
    <glyph glyph-name="gongdan-copy" unicode="&#59278;" d="M516.266667 580.266667m-21.333334 0a21.333333 21.333333 0 1 1 42.666667 0 21.333333 21.333333 0 1 1-42.666667 0ZM614.4 405.333333H409.6c-12.8 0-25.6-12.8-25.6-25.6s12.8-25.6 25.6-25.6h204.8c12.8 0 25.6 12.8 25.6 25.6s-12.8 25.6-25.6 25.6zM541.866667 277.33333300000004H409.6c-12.8 0-25.6-12.8-25.6-25.6s12.8-25.6 25.6-25.6h132.266667c12.8 0 25.6 12.8 25.6 25.6s-12.8 25.6-25.6 25.6zM772.266667 793.6h-512c-93.866667 0-170.666667-76.8-170.666667-170.666667v-512c0-93.866667 76.8-170.666667 170.666667-170.666666h512c93.866667 0 170.666667 76.8 170.666666 170.666666v512c0 93.866667-76.8 170.666667-170.666666 170.666667zM409.6 558.933333c0 12.8 8.533333 21.333333 21.333333 21.333334h21.333334c12.8 0 21.333333 8.533333 21.333333 21.333333s8.533333 21.333333 21.333333 21.333333h42.666667c12.8 0 21.333333-8.533333 21.333333-21.333333s8.533333-21.333333 21.333334-21.333333h21.333333c12.8 0 21.333333-8.533333 21.333333-21.333334v-21.333333c0-12.8-8.533333-21.333333-21.333333-21.333333H426.666667c-12.8 0-21.333333 8.533333-21.333334 21.333333v21.333333z m315.733333-405.333333c0-21.333333-17.066667-34.133333-34.133333-34.133333H345.6c-21.333333 0-34.133333 17.066667-34.133333 34.133333V529.066667c0 12.8 8.533333 25.6 25.6 25.6h38.4v-25.6c0-25.6 21.333333-46.933333 46.933333-46.933334h192c25.6 0 46.933333 21.333333 46.933333 46.933334V554.666667h38.4c12.8 0 25.6-12.8 25.6-25.6v-375.466667z"  horiz-adv-x="1024" />

    
    <glyph glyph-name="expense-copy" unicode="&#59279;" d="M117.028571 896h789.942858c64.365714 0 117.028571-52.662857 117.028571-117.028571v-789.942858c0-64.365714-52.662857-117.028571-117.028571-117.028571H117.028571c-64.365714 0-117.028571 52.662857-117.028571 117.028571V778.971429c0 64.365714 52.662857 117.028571 117.028571 117.028571zM512 384m-292.571429 0a292.571429 292.571429 0 1 1 585.142858 0 292.571429 292.571429 0 1 1-585.142858 0ZM529.554286 322.55999999999995v71.68h102.4V427.885714h-87.771429l-8.777143 8.777143 90.697143 90.697143-23.405714 23.405714-90.697143-90.697143-90.697143 90.697143-23.405714-23.405714 90.697143-90.697143-8.777143-8.777143h-87.771429v-33.645714h103.862857v-71.68h-103.862857v-33.645714h103.862857v-99.474286h33.645715v99.474286h102.4v33.645714h-102.4z"  horiz-adv-x="1024" />

    
    <glyph glyph-name="xiaoxi-copy" unicode="&#59280;" d="M230.9 830.5h562.3c91.3 0 165.4-74 165.4-165.4v-562.3c0-91.3-74.1-165.4-165.4-165.4H230.9c-91.3 0-165.4 74-165.4 165.4V665.1c0 91.4 74 165.4 165.4 165.4zM512 648.6c-146.2 0-264.6-98.7-264.6-220.5 0-95.8 73.5-177.2 176-207.5-20.3-92.4-59.8-101.1-59.8-101.1 102.7 21 137.3 61.7 149 88.2 145.9 0.3 264.1 98.8 264.1 220.5-0.1 121.7-118.6 220.4-264.7 220.4z m49.6-281.1H396.2c-9.1 0-16.5 7.4-16.5 16.5s7.4 16.5 16.5 16.5h165.4c9.1 0 16.5-7.4 16.5-16.5 0.1-9.1-7.3-16.5-16.5-16.5z m66.2 99.2H396.2c-9.1 0-16.5 7.4-16.5 16.5s7.4 16.5 16.5 16.5h231.5c9.1 0 16.5-7.4 16.5-16.5 0.1-9.1-7.3-16.5-16.4-16.5z"  horiz-adv-x="1024" />

    
    <glyph glyph-name="gengduocaozuo-copy" unicode="&#59281;" d="M511.996577 659.689702a114.211695 114.211695 0 0 0-83.492687 34.657342A113.424028 113.424028 0 0 0 393.846548 777.839731 113.424028 113.424028 0 0 0 428.50389 861.332418 114.211695 114.211695 0 0 0 511.996577 895.98976a114.211695 114.211695 0 0 0 83.492687-34.657342A113.424028 113.424028 0 0 0 630.146606 777.839731a113.424028 113.424028 0 0 0-34.657342-83.492687A114.211695 114.211695 0 0 0 511.996577 659.689702z m0-157.533372a114.211695 114.211695 0 0 0 83.492687-34.657342 118.150029 118.150029 0 0 0 0-167.773041A114.211695 114.211695 0 0 0 511.996577 265.856272a114.211695 114.211695 0 0 0-83.492687 34.657342 118.150029 118.150029 0 0 0 0 167.773041A114.211695 114.211695 0 0 0 511.996577 502.15633z m0-393.83343a114.211695 114.211695 0 0 0 83.492687-34.657342 118.150029 118.150029 0 0 0 0-167.773041A114.211695 114.211695 0 0 0 511.996577-127.97715800000003a114.211695 114.211695 0 0 0-83.492687 34.657342 118.150029 118.150029 0 0 0 0 167.773041A114.211695 114.211695 0 0 0 511.996577 108.3229zM511.996577 659.689702a114.211695 114.211695 0 0 0-83.492687 34.657342A113.424028 113.424028 0 0 0 393.846548 777.839731 113.424028 113.424028 0 0 0 428.50389 861.332418 114.211695 114.211695 0 0 0 511.996577 895.98976a114.211695 114.211695 0 0 0 83.492687-34.657342A113.424028 113.424028 0 0 0 630.146606 777.839731a113.424028 113.424028 0 0 0-34.657342-83.492687A114.211695 114.211695 0 0 0 511.996577 659.689702z m0-157.533372a114.211695 114.211695 0 0 0 83.492687-34.657342 118.150029 118.150029 0 0 0 0-167.773041A114.211695 114.211695 0 0 0 511.996577 265.856272a114.211695 114.211695 0 0 0-83.492687 34.657342 118.150029 118.150029 0 0 0 0 167.773041A114.211695 114.211695 0 0 0 511.996577 502.15633z m0-393.83343a114.211695 114.211695 0 0 0 83.492687-34.657342 118.150029 118.150029 0 0 0 0-167.773041A114.211695 114.211695 0 0 0 511.996577-127.97715800000003a114.211695 114.211695 0 0 0-83.492687 34.657342 118.150029 118.150029 0 0 0 0 167.773041A114.211695 114.211695 0 0 0 511.996577 108.3229z"  horiz-adv-x="1024" />

    
    <glyph glyph-name="102fangxiang_xiangxia-copy" unicode="&#59594;" d="M250.88 750.592q0 29.69599999 11.264 48.12799999t29.696 24.57600001 41.472 0 45.568-26.624q92.16-82.94399999 180.224-159.744t164.864-148.47999999q20.47999999-19.456 31.744-45.56800001t11.776-53.76-8.704-53.248-28.672-43.008Q686.08 252.92800001 640 209.91999999999996l-92.16-88.064q-46.08-43.008-90.624-85.50400001t-86.528-79.35999999q-19.456-17.408-40.448-22.528t-38.4 1.024-28.672 23.552-11.264 45.056q0 35.84-0.512 98.816t-0.512 137.728l0 509.952z"  horiz-adv-x="1024" />

    
    <glyph glyph-name="goLeft-copy" unicode="&#59595;" d="M129.6995467 405.30226442l495.74990381-534.0229278 228.72937813 0-495.74990381 534.02292779 495.75119835 495.73048572-228.73067267 0-495.75119834-495.73048571zM129.6995467 405.30226442z"  horiz-adv-x="1000" />

    
    <glyph glyph-name="goLeft1-copy" unicode="&#59596;" d="M894.3004533 362.69773556999996l-495.74990381 534.02292781-228.72937813 0 495.74990381-534.02292779-495.75119835-495.73048572 228.73067267 0 495.75119834 495.7304857zM894.3004533 362.69773556999996z"  horiz-adv-x="1000" />

    
    <glyph glyph-name="shanchu-copy" unicode="&#59597;" d="M239.173265 568.6300209999999h-81.762166l55.492872-551.461757c4.629437-46.004777 43.351344-81.026408 89.588411-81.026408h419.018306c46.237067 0 84.958974 35.020608 89.589434 81.026408l55.492872 551.461757h-81.761142m-54.674227-543.315216a8.664334 8.664334 0 0 0-8.645914-7.82113H302.493405a8.664334 8.664334 0 0 0-8.646937 7.820106l-54.673203 543.31624h545.658587l-54.674227-543.315216zM641.143289 751.111099H379.527896c-22.427802 0-40.609906 18.182105-40.609906 40.609906v0.130983c0 22.427802 18.182105 40.609906 40.609906 40.609907h261.615393c22.427802 0 40.609906-18.182105 40.609906-40.609907v-0.130983c0-22.427802-18.182105-40.609906-40.609906-40.609906zM893.050576 568.6300209999999H127.619586c-22.427802 0-40.609906 18.182105-40.609907 40.609906v0.130984c0 22.427802 18.182105 40.609906 40.609907 40.609906h765.43099c22.427802 0 40.609906-18.182105 40.609906-40.609906v-0.130984c0-22.427802-18.181081-40.609906-40.609906-40.609906zM469.659683 177.67895799999997V386.998287c0 22.427802 18.182105 40.609906 40.609906 40.609907h0.130983c22.427802 0 40.609906-18.182105 40.609907-40.609907v-209.318306c0-22.427802-18.182105-40.609906-40.609907-40.609907h-0.130983c-22.427802-0.001023-40.609906 18.181081-40.609906 40.608884z"  horiz-adv-x="1024" />

    


  </font>
</defs>
</svg>
